<svg id="Capa_1" enable-background="new 0 0 512 512" height="512" viewBox="0 0 512 512" width="512" xmlns="http://www.w3.org/2000/svg"><g><path d="m421.18 457.207c-.005-13.775 11.157-24.937 24.931-24.931l-.027-57.895c-13.775-.005-24.946-11.176-24.951-24.951h-143.887c.005 13.775-11.157 24.937-24.931 24.931l.027 57.896c13.775.005 24.946 11.176 24.951 24.951z" fill="#a4fcc4"/><g fill="#020288"><path d="m174.368 452.084h-13.333c-5.523 0-10 4.477-10 10 0 5.522 4.477 10 10 10h13.333c5.523 0 10-4.478 10-10 0-5.523-4.477-10-10-10z"/><path d="m244.235 121.25h-149.068c-5.523 0-10 4.478-10 10v132.314c0 5.522 4.477 10 10 10h149.068c5.523 0 10-4.478 10-10v-132.314c0-5.522-4.477-10-10-10zm-57.724 20v50.695l-12.791-5.614c-1.281-.562-2.65-.843-4.019-.843s-2.738.281-4.019.843l-12.791 5.614v-50.695zm47.724 112.314h-129.068v-112.314h27.724v66.005c0 3.377 1.704 6.525 4.531 8.372 2.828 1.848 6.396 2.141 9.488.785l22.791-10.003 22.791 10.003c1.287.564 2.655.843 4.018.843 1.914 0 3.818-.55 5.469-1.628 2.827-1.847 4.531-4.995 4.531-8.372v-66.005h27.724z"/><path d="m500.838 325.078c-.006-16.757-13.645-30.396-30.405-30.403l-142.126-.023v-246.549c0-26.524-21.66-48.103-48.285-48.103h-220.642c-26.624 0-48.284 21.579-48.284 48.103v415.704c0 26.574 21.619 48.193 48.193 48.193h411.22.013c8.116 0 15.747-3.16 21.485-8.897 5.741-5.742 8.901-13.377 8.897-21.498zm-272.921-30.442h-.014c-8.116 0-15.746 3.16-21.484 8.897-5.741 5.741-8.901 13.376-8.898 21.497l.037 87.138c-.005 0-.011 0-.016 0h-166.446v-327.623h277.211v210.104zm-168.537-274.636h220.643c15.596 0 28.284 12.606 28.284 28.103v16.442h-277.211v-16.442c0-15.497 12.688-28.103 28.284-28.103zm-28.284 443.807v-31.639h166.447.025l.021 49.389c.001 3.667.656 7.185 1.852 10.443h-140.152c-15.546 0-28.193-12.647-28.193-28.193zm446.768 25.153c-1.961 1.961-4.568 3.04-7.343 3.04h-.005s-.001 0-.002 0l-242.516-.04c-5.738-.002-10.409-4.673-10.411-10.411l-.066-156.526c-.001-2.776 1.079-5.385 3.04-7.347 1.961-1.961 4.568-3.04 7.345-3.04h.005l242.516.039c5.738.003 10.409 4.673 10.411 10.411l.066 156.526c.001 2.777-1.078 5.386-3.04 7.348z"/></g></g></svg>