<svg id="Capa_1" enable-background="new 0 0 512 512" height="512" viewBox="0 0 512 512" width="512" xmlns="http://www.w3.org/2000/svg"><g><g fill="#020288"><path d="m265.154 90.664h-12.024c-5.523 0-10 4.478-10 10s4.477 10 10 10h12.024c5.522 0 10-4.478 10-10 0-5.523-4.477-10-10-10z"/><path d="m320.771 90.664h-12.024c-5.522 0-10 4.478-10 10s4.478 10 10 10h12.024c5.522 0 10-4.478 10-10 0-5.523-4.477-10-10-10z"/><path d="m376.389 90.664h-12.024c-5.522 0-10 4.478-10 10s4.478 10 10 10h12.024c5.522 0 10-4.478 10-10 0-5.523-4.478-10-10-10z"/><path d="m151.625 90.664h-86.783c-5.523 0-10 4.478-10 10s4.477 10 10 10h86.783c5.523 0 10-4.478 10-10 0-5.523-4.477-10-10-10z"/><path d="m145.483 199.149c-23.263 0-42.189 18.982-42.189 42.314v3.316h-27.115c-5.523 0-10 4.478-10 10v115.012c0 18.954 15.42 34.374 34.374 34.374h90.092c18.954 0 34.374-15.42 34.374-34.374v-115.011c0-5.522-4.477-10-10-10h-27.347v-3.316c0-23.332-18.926-42.315-42.189-42.315zm-22.188 42.315c0-12.305 9.954-22.314 22.189-22.314s22.188 10.01 22.188 22.314v3.316h-44.377zm81.724 23.316v105.012c0 7.926-6.448 14.374-14.374 14.374h-90.092c-7.926 0-14.375-6.448-14.375-14.374v-105.012h17.116v21.472c0 5.522 4.477 10 10 10s10-4.478 10-10v-21.472h44.377v21.472c0 5.522 4.477 10 10 10s10-4.478 10-10v-21.472z"/><path d="m430.038 222.591v-145.363c0-18.661-15.21-33.843-33.905-33.843h-362.228c-18.695.001-33.905 15.182-33.905 33.843v357.411c0 18.661 15.21 33.844 33.905 33.844h312.62c-4.791-.777-8.448-4.932-8.448-9.942v-10.058h-304.172c-7.667 0-13.905-6.21-13.905-13.844v-276.696h390.038v64.648c-25.861 4.726-45.532 27.414-45.532 54.627v32.891h20v-32.891c0-19.601 15.94-35.547 35.533-35.547s35.532 15.946 35.532 35.547v32.891h20v-32.891c0-27.212-19.671-49.901-45.533-54.627zm-410.038-84.648v-60.715c0-7.633 6.238-13.843 13.905-13.843h362.228c7.667 0 13.905 6.21 13.905 13.843v60.715z"/></g><g><g><path d="m501.927 468.614h-163.777c-5.563 0-10.073-4.51-10.073-10.073v-148.358c0-5.563 4.51-10.073 10.073-10.073h163.776c5.563 0 10.073 4.51 10.073 10.073v148.358c.001 5.563-4.509 10.073-10.072 10.073z" fill="#fff59b"/></g><path d="m448.304 378.336c0-15.589-12.68-28.271-28.266-28.271-15.585 0-28.265 12.682-28.265 28.271 0 12.069 7.6 22.395 18.265 26.443v7.189c0 5.522 4.478 10 10 10s10-4.478 10-10v-7.188c10.665-4.049 18.266-14.375 18.266-26.444zm-28.266-8.271c4.558 0 8.266 3.71 8.266 8.271s-3.708 8.271-8.266 8.271-8.265-3.71-8.265-8.271 3.707-8.271 8.265-8.271z" fill="#020288"/></g></g></svg>