<svg id="Capa_1" enable-background="new 0 0 512 512" height="512" viewBox="0 0 512 512" width="512" xmlns="http://www.w3.org/2000/svg"><g><g fill="#020288"><path d="m72.037 331.067c-5.523 0-10 4.478-10 10v85.337c0 5.523 4.477 10 10 10h112.82c5.523 0 10-4.477 10-10v-85.337c0-5.522-4.477-10-10-10zm102.82 85.337h-92.82v-65.337h92.82z"/><g><path d="m512 171.265c0-24.962-20.243-45.27-45.125-45.27h-107.666l-8.212 6.255c0 1.789 8.157 12.012 8.049 13.745h107.829c13.854 0 25.125 11.336 25.125 25.27v30.082h-159.172c-7.953 7.986-16.913 14.605-25.71 20h184.882v39.075h-472v-39.075h197.706c-8.797-5.395-17.758-12.014-25.71-20h-171.996v-30.082c0-13.934 11.271-25.27 25.125-25.27h120.652c-.108-1.733 11.073-9.201 11.073-10.989l-11.236-9.011h-120.489c-24.882 0-45.125 20.308-45.125 45.27v286.952c0 24.962 20.243 45.27 45.125 45.27h421.749c24.882 0 45.125-20.308 45.125-45.27v-88.693c0-.213-.007-.425-.021-.635.013-.21.021-.422.021-.635v-196.989zm-20 198.258v88.693c0 13.934-11.272 25.27-25.125 25.27h-421.75c-13.854 0-25.125-11.336-25.125-25.269v-177.795h472v87.832c0 .213.007.425.021.635-.014.21-.021.421-.021.634z"/><path d="m393.368 326.98c-31.207 0-56.595 25.461-56.595 56.756s25.388 56.755 56.595 56.755 56.595-25.46 56.595-56.755-25.388-56.756-56.595-56.756zm0 93.511c-20.178 0-36.595-16.488-36.595-36.755 0-20.268 16.417-36.756 36.595-36.756 20.179 0 36.595 16.488 36.595 36.756 0 20.267-16.416 36.755-36.595 36.755z"/></g></g><g><g><path d="m333.281 43.946c-24.85 0-46.284-14.491-56.256-35.432h-29.226c-9.973 20.941-31.406 35.432-56.256 35.432-9.254 0-18.034-2.012-25.928-5.614v102.382c0 74.883 96.797 100.438 96.797 100.438s96.797-25.554 96.797-100.438v-102.382c-7.894 3.602-16.674 5.614-25.928 5.614z" fill="#b2f0fb"/></g><path d="m259.234 155.511c-2.636 0-5.173-1.042-7.05-2.909l-17.864-17.763c-3.917-3.894-3.934-10.226-.04-14.142 3.894-3.918 10.227-3.935 14.142-.04l10.167 10.109 28.731-34.061c3.562-4.221 9.871-4.757 14.092-1.196s4.757 9.869 1.196 14.091l-35.729 42.358c-1.802 2.137-4.415 3.421-7.207 3.543-.146.007-.293.01-.438.01z" fill="#020288"/></g></g></svg>